<svg width="49" height="49" viewBox="0 0 49 49" fill="none" xmlns="http://www.w3.org/2000/svg">
<g id="mark-github-24">
<path id="Icon" fill-rule="evenodd" clip-rule="evenodd" d="M24.313 1.51953C11.4397 1.51953 1.01294 11.9463 1.01294 24.8196C1.01294 35.1298 7.68258 43.8382 16.9443 46.9255C18.1093 47.1294 18.5462 46.4304 18.5462 45.8187C18.5462 45.2654 18.5171 43.4305 18.5171 41.4791C12.663 42.5567 11.1485 40.052 10.6825 38.7413C10.4203 38.0715 9.28445 36.0036 8.2942 35.4502C7.4787 35.0133 6.3137 33.9357 8.26508 33.9066C10.1 33.8775 11.4106 35.5958 11.8475 36.2948C13.9445 39.819 17.2938 38.8287 18.6336 38.2171C18.8375 36.7026 19.4491 35.6832 20.119 35.1007C14.9347 34.5182 9.51746 32.5086 9.51746 23.5963C9.51746 21.0624 10.4203 18.9654 11.9057 17.3344C11.6727 16.7519 10.8572 14.3637 12.1387 11.1599C12.1387 11.1599 14.0901 10.5483 18.5462 13.5482C20.4102 13.0239 22.3907 12.7618 24.3712 12.7618C26.3517 12.7618 28.3322 13.0239 30.1962 13.5482C34.6524 10.5192 36.6038 11.1599 36.6038 11.1599C37.8853 14.3637 37.0698 16.7519 36.8368 17.3344C38.3221 18.9654 39.225 21.0333 39.225 23.5963C39.225 32.5377 33.7786 34.5182 28.5944 35.1007C29.439 35.8288 30.1671 37.2268 30.1671 39.4112C30.1671 42.5276 30.138 45.0324 30.138 45.8187C30.138 46.4304 30.5749 47.1585 31.7399 46.9255C40.9434 43.8382 47.613 35.1007 47.613 24.8196C47.613 11.9463 37.1863 1.51953 24.313 1.51953Z" fill="#FE6E3A"/>
</g>
</svg>
