<svg width="49" height="47" viewBox="0 0 49 47" fill="none" xmlns="http://www.w3.org/2000/svg">
<g id="Group">
<path id="Vector" d="M24.7425 0L24.6318 0C11.2346 0 0.374023 10.4203 0.374023 23.2745V23.3807C0.374023 36.2349 11.2346 46.6552 24.6318 46.6552H24.7425C38.1396 46.6552 49.0002 36.2349 49.0002 23.3807V23.2745C49.0002 10.4203 38.1396 0 24.7425 0Z" fill="#FE6E3A"/>
<g id="Group_2">
<path id="Vector_2" d="M32.2105 9.49219H17.1642C13.0074 9.49219 9.62573 12.7368 9.62573 16.7251L9.62573 29.9323C9.62573 33.9207 13.0074 37.1653 17.1642 37.1653H32.2105C36.3673 37.1653 39.749 33.9207 39.749 29.9323V16.7251C39.749 12.7368 36.3673 9.49219 32.2105 9.49219ZM12.2851 16.7251C12.2851 14.1441 14.4742 12.0437 17.1642 12.0437H32.2105C34.9005 12.0437 37.0897 14.1441 37.0897 16.7251V29.9323C37.0897 32.5133 34.9005 34.6137 32.2105 34.6137H17.1642C14.4742 34.6137 12.2851 32.5133 12.2851 29.9323L12.2851 16.7251Z" fill="black"/>
<path id="Vector_3" d="M24.6871 30.0553C28.5526 30.0553 31.6992 27.0379 31.6992 23.3274C31.6992 19.617 28.5543 16.5996 24.6871 16.5996C20.8199 16.5996 17.675 19.617 17.675 23.3274C17.675 27.0379 20.8199 30.0553 24.6871 30.0553ZM24.6871 19.1528C27.0875 19.1528 29.0398 21.026 29.0398 23.3291C29.0398 25.6322 27.0875 27.5054 24.6871 27.5054C22.2867 27.5054 20.3344 25.6322 20.3344 23.3291C20.3344 21.026 22.2867 19.1528 24.6871 19.1528Z" fill="black"/>
<path id="Vector_4" d="M32.3485 17.687C33.3894 17.687 34.2378 16.8745 34.2378 15.874C34.2378 14.8735 33.3911 14.061 32.3485 14.061C31.3059 14.061 30.4592 14.8735 30.4592 15.874C30.4592 16.8745 31.3059 17.687 32.3485 17.687Z" fill="black"/>
</g>
</g>
</svg>
