<svg width="49" height="47" viewBox="0 0 49 47" fill="none" xmlns="http://www.w3.org/2000/svg">
<g id="Group">
<path id="Vector" d="M24.6097 0L24.4989 0C11.1018 0 0.241211 10.4203 0.241211 23.2745V23.3807C0.241211 36.2349 11.1018 46.6552 24.4989 46.6552H24.6097C38.0068 46.6552 48.8674 36.2349 48.8674 23.3807V23.2745C48.8674 10.4203 38.0068 0 24.6097 0Z" fill="#FE6E3A"/>
<g id="Group_2">
<path id="Vector_2" d="M11.8488 15.4606C11.2082 14.8901 10.8896 14.184 10.8896 13.3438C10.8896 12.5037 11.2099 11.7665 11.8488 11.1944C12.4893 10.6239 13.3139 10.3379 14.3241 10.3379C15.3344 10.3379 16.1265 10.6239 16.7654 11.1944C17.406 11.7649 17.7245 12.4824 17.7245 13.3438C17.7245 14.2053 17.4043 14.8901 16.7654 15.4606C16.1248 16.0311 15.3122 16.3171 14.3241 16.3171C13.336 16.3171 12.4893 16.0311 11.8488 15.4606ZM17.1862 18.733V36.2228H11.4263V18.733H17.1862Z" fill="black"/>
<path id="Vector_3" d="M36.3592 20.461C37.6148 21.7686 38.2417 23.5634 38.2417 25.8485V35.9141H32.7715V26.5579C32.7715 25.4055 32.4597 24.5098 31.8379 23.8723C31.2161 23.2348 30.3779 22.9145 29.3285 22.9145C28.279 22.9145 27.4408 23.2332 26.819 23.8723C26.1972 24.5098 25.8854 25.4055 25.8854 26.5579V35.9141H20.3828V18.6842H25.8854V20.9693C26.4425 20.2076 27.1938 19.6061 28.1376 19.1632C29.0814 18.7202 30.1428 18.4995 31.3234 18.4995C33.4256 18.4995 35.1054 19.1533 36.3592 20.4593V20.461Z" fill="black"/>
</g>
</g>
</svg>
