<svg width="500" height="1010" viewBox="0 0 500 1010" fill="none" xmlns="http://www.w3.org/2000/svg">
<g filter="url(#filter0_f_1_386)">
<path fill-rule="evenodd" clip-rule="evenodd" d="M533.46 141.577C583.953 135.085 633.953 149.399 680.261 170.553C732.207 194.282 785.207 221.743 815.272 270.309C847.082 321.696 866.602 386.474 849.879 444.554C833.579 501.164 767.673 524.103 729.323 568.812C690.71 613.829 681.514 693.001 624.089 707.789C566.313 722.667 519.338 658.367 463.537 637.254C413.351 618.265 342.965 634.647 313.04 590.098C282.451 544.561 313.968 483.18 323.781 429.203C330.779 390.701 348.073 357.29 362.007 320.723C377.095 281.13 379.767 236.025 409.06 205.418C441.955 171.046 486.279 147.642 533.46 141.577Z" fill="#B4440F" fill-opacity="0.3"/>
</g>
<defs>
<filter id="filter0_f_1_386" x="0" y="-160" width="1156" height="1170" filterUnits="userSpaceOnUse" color-interpolation-filters="sRGB">
<feFlood flood-opacity="0" result="BackgroundImageFix"/>
<feBlend mode="normal" in="SourceGraphic" in2="BackgroundImageFix" result="shape"/>
<feGaussianBlur stdDeviation="150" result="effect1_foregroundBlur_1_386"/>
</filter>
</defs>
</svg>
